<svg width="177" height="51" viewBox="0 0 177 51" fill="none" xmlns="http://www.w3.org/2000/svg">
<path d="M44.88 39.2032V38.8032L45.68 38.4832C46.2133 38.2965 46.56 38.0432 46.72 37.7232C46.9067 37.4032 47 36.9765 47 36.4432V15.5632C47 15.0299 46.92 14.6032 46.76 14.2832C46.6 13.9632 46.24 13.7099 45.68 13.5232L44.88 13.2032V12.8032H55.16V13.2032L54.36 13.5232C53.8267 13.7099 53.4667 13.9632 53.28 14.2832C53.12 14.6032 53.04 15.0299 53.04 15.5632V36.4432C53.04 36.9765 53.12 37.4032 53.28 37.7232C53.4667 38.0165 53.8267 38.2699 54.36 38.4832L55.16 38.8032V39.2032H44.88ZM56.8313 39.2032V38.8032L57.3913 38.6432C58.3246 38.3765 58.7913 37.7232 58.7913 36.6832V24.1632C58.7913 23.5765 58.6979 23.1499 58.5113 22.8832C58.3246 22.5899 57.9646 22.3899 57.4313 22.2832L56.8313 22.1232V21.7232L63.6713 19.4032L64.0713 19.8032L64.3913 22.2032C65.3246 21.3765 66.3779 20.6965 67.5513 20.1632C68.7246 19.6299 69.8846 19.3632 71.0313 19.3632C72.7913 19.3632 74.1379 19.8432 75.0713 20.8032C76.0313 21.7632 76.5113 23.2299 76.5113 25.2032V36.7232C76.5113 37.7632 77.0179 38.4165 78.0313 38.6832L78.3913 38.8032V39.2032H68.9513V38.8032L69.4713 38.6432C70.4046 38.3499 70.8713 37.6965 70.8713 36.6832V23.9232C70.8713 22.2165 70.0179 21.3632 68.3113 21.3632C67.1379 21.3632 65.8579 21.9499 64.4713 23.1232V36.7232C64.4713 37.7632 64.9379 38.4165 65.8713 38.6832L66.2313 38.8032V39.2032H56.8313ZM87.3609 39.8032C85.6543 39.8032 84.3209 39.3765 83.3609 38.5232C82.4276 37.6699 81.9609 36.3099 81.9609 34.4432V20.7632H79.2009V20.3632L80.1609 20.2032C80.9876 20.0165 81.6943 19.7499 82.2809 19.4032C82.8943 19.0565 83.4943 18.5899 84.0809 18.0032L87.3609 14.3632H87.7609L87.6409 19.9632H92.1209V20.7632H87.6009V35.1632C87.6009 36.0965 87.8009 36.8032 88.2009 37.2832C88.6276 37.7632 89.1609 38.0032 89.8009 38.0032C90.3609 38.0032 90.8543 37.8699 91.2809 37.6032C91.7076 37.3099 92.1343 36.9232 92.5609 36.4432L92.9609 36.8432C92.4276 37.7499 91.6943 38.4699 90.7609 39.0032C89.8276 39.5365 88.6943 39.8032 87.3609 39.8032ZM104.137 19.3632C105.87 19.3632 107.35 19.7232 108.577 20.4432C109.804 21.1365 110.737 22.0965 111.377 23.3232C112.044 24.5232 112.377 25.8965 112.377 27.4432C112.377 27.7365 112.364 28.0432 112.337 28.3632C112.31 28.6565 112.257 28.9232 112.177 29.1632H100.257C100.284 32.0432 100.79 34.1232 101.777 35.4032C102.79 36.6565 104.284 37.2832 106.257 37.2832C107.59 37.2832 108.67 37.0699 109.497 36.6432C110.324 36.2165 111.097 35.5899 111.817 34.7632L112.217 35.1232C111.39 36.5899 110.284 37.7365 108.897 38.5632C107.537 39.3899 105.897 39.8032 103.977 39.8032C102.084 39.8032 100.404 39.4032 98.9369 38.6032C97.4702 37.7765 96.3235 36.6032 95.4969 35.0832C94.6702 33.5632 94.2569 31.7499 94.2569 29.6432C94.2569 27.4565 94.7369 25.6032 95.6969 24.0832C96.6569 22.5365 97.8835 21.3632 99.3769 20.5632C100.897 19.7632 102.484 19.3632 104.137 19.3632ZM104.017 20.1632C103.244 20.1632 102.577 20.4032 102.017 20.8832C101.484 21.3365 101.057 22.1632 100.737 23.3632C100.444 24.5365 100.284 26.2032 100.257 28.3632H107.097C107.364 25.4565 107.257 23.3632 106.777 22.0832C106.297 20.8032 105.377 20.1632 104.017 20.1632ZM114.37 39.2032V38.8032L114.97 38.6432C115.504 38.4832 115.864 38.2432 116.05 37.9232C116.264 37.6032 116.37 37.1899 116.37 36.6832V24.1632C116.37 23.5765 116.264 23.1499 116.05 22.8832C115.864 22.5899 115.504 22.3899 114.97 22.2832L114.37 22.1232V21.7232L121.25 19.4032L121.65 19.8032L122.01 23.2432V23.5632C122.384 22.8165 122.864 22.1365 123.45 21.5232C124.064 20.8832 124.73 20.3632 125.45 19.9632C126.197 19.5632 126.93 19.3632 127.65 19.3632C128.664 19.3632 129.437 19.6432 129.97 20.2032C130.504 20.7632 130.77 21.4699 130.77 22.3232C130.77 23.2299 130.504 23.9365 129.97 24.4432C129.464 24.9232 128.85 25.1632 128.13 25.1632C127.01 25.1632 126.024 24.6032 125.17 23.4832L125.09 23.4032C124.824 23.0299 124.517 22.8299 124.17 22.8032C123.824 22.7499 123.504 22.9099 123.21 23.2832C122.944 23.5232 122.717 23.8165 122.53 24.1632C122.37 24.4832 122.21 24.8565 122.05 25.2832V36.4432C122.05 37.5099 122.517 38.1765 123.45 38.4432L124.73 38.8032V39.2032H114.37ZM132.027 39.2032V38.8032L132.587 38.6432C133.52 38.3765 133.987 37.7232 133.987 36.6832V24.1632C133.987 23.5765 133.893 23.1499 133.707 22.8832C133.52 22.5899 133.16 22.3899 132.627 22.2832L132.027 22.1232V21.7232L138.867 19.4032L139.267 19.8032L139.587 22.2032C140.52 21.3765 141.573 20.6965 142.747 20.1632C143.92 19.6299 145.08 19.3632 146.227 19.3632C147.987 19.3632 149.333 19.8432 150.267 20.8032C151.227 21.7632 151.707 23.2299 151.707 25.2032V36.7232C151.707 37.7632 152.213 38.4165 153.227 38.6832L153.587 38.8032V39.2032H144.147V38.8032L144.667 38.6432C145.6 38.3499 146.067 37.6965 146.067 36.6832V23.9232C146.067 22.2165 145.213 21.3632 143.507 21.3632C142.333 21.3632 141.053 21.9499 139.667 23.1232V36.7232C139.667 37.7632 140.133 38.4165 141.067 38.6832L141.427 38.8032V39.2032H132.027ZM165.272 39.8032C163.245 39.8032 161.485 39.3899 159.992 38.5632C158.498 37.7099 157.338 36.5099 156.512 34.9632C155.712 33.4165 155.312 31.6032 155.312 29.5232C155.312 27.4432 155.738 25.6432 156.592 24.1232C157.472 22.6032 158.658 21.4299 160.152 20.6032C161.672 19.7765 163.378 19.3632 165.272 19.3632C167.165 19.3632 168.858 19.7765 170.352 20.6032C171.845 21.4032 173.018 22.5632 173.872 24.0832C174.752 25.6032 175.192 27.4165 175.192 29.5232C175.192 31.6299 174.778 33.4565 173.952 35.0032C173.152 36.5232 172.005 37.7099 170.512 38.5632C169.045 39.3899 167.298 39.8032 165.272 39.8032ZM165.272 39.0032C166.205 39.0032 166.952 38.7365 167.512 38.2032C168.072 37.6699 168.472 36.7232 168.712 35.3632C168.978 34.0032 169.112 32.0832 169.112 29.6032C169.112 27.0965 168.978 25.1632 168.712 23.8032C168.472 22.4432 168.072 21.4965 167.512 20.9632C166.952 20.4299 166.205 20.1632 165.272 20.1632C164.338 20.1632 163.578 20.4299 162.992 20.9632C162.432 21.4965 162.018 22.4432 161.752 23.8032C161.512 25.1632 161.392 27.0965 161.392 29.6032C161.392 32.0832 161.512 34.0032 161.752 35.3632C162.018 36.7232 162.432 37.6699 162.992 38.2032C163.578 38.7365 164.338 39.0032 165.272 39.0032Z" fill="#292F36"/>
<path d="M0 42.2034H13.4588V32.7021C13.4588 30.6884 15.0898 29.0574 17.1035 29.0574C19.1172 29.0574 20.7482 30.6884 20.7482 32.7021V42.2034H33.9975V8.20312C15.2211 8.20312 0 23.4242 0 42.2034Z" fill="#CDA274"/>
</svg>
